<svg width="40" height="40" viewBox="0 0 40 40" fill="none" xmlns="http://www.w3.org/2000/svg">
<path fill-rule="evenodd" clip-rule="evenodd" d="M20 0C31.0375 0 40 8.9625 40 20C40 31.0375 31.0375 40 20 40C8.9625 40 0 31.0375 0 20C0 8.9625 8.9625 0 20 0ZM20 5C28.2775 5 35 11.7225 35 20C35 28.2775 28.2775 35 20 35C11.7225 35 5 28.2775 5 20C5 11.7225 11.7225 5 20 5ZM21 30H19C18.1725 30 17.5 29.3275 17.5 28.5V22.5H11.5C10.6725 22.5 10 21.8275 10 21V19C10 18.1725 10.6725 17.5 11.5 17.5H17.5V11.5C17.5 10.6725 18.1725 10 19 10H21C21.8275 10 22.5 10.6725 22.5 11.5V17.5H28.5C29.3275 17.5 30 18.1725 30 19V21C30 21.8275 29.3275 22.5 28.5 22.5H22.5V28.5C22.5 29.3275 21.8275 30 21 30V30V30Z" fill="#8E9297"/>
</svg>
