<svg width="40" height="40" viewBox="0 0 40 40" fill="none" xmlns="http://www.w3.org/2000/svg">
<circle cx="20" cy="20" r="20" fill="#FF820C"/>
<path d="M20 17C21.65 17 23 18.35 23 20C23 21.65 21.65 23 20 23C18.35 23 17 21.65 17 20C17 18.35 18.35 17 20 17ZM20 15C17.24 15 15 17.24 15 20C15 22.76 17.24 25 20 25C22.76 25 25 22.76 25 20C25 17.24 22.76 15 20 15ZM10 21H12C12.55 21 13 20.55 13 20C13 19.45 12.55 19 12 19H10C9.45 19 9 19.45 9 20C9 20.55 9.45 21 10 21ZM28 21H30C30.55 21 31 20.55 31 20C31 19.45 30.55 19 30 19H28C27.45 19 27 19.45 27 20C27 20.55 27.45 21 28 21ZM19 10V12C19 12.55 19.45 13 20 13C20.55 13 21 12.55 21 12V10C21 9.45 20.55 9 20 9C19.45 9 19 9.45 19 10ZM19 28V30C19 30.55 19.45 31 20 31C20.55 31 21 30.55 21 30V28C21 27.45 20.55 27 20 27C19.45 27 19 27.45 19 28ZM13.99 12.58C13.6 12.19 12.96 12.19 12.58 12.58C12.19 12.97 12.19 13.61 12.58 13.99L13.64 15.05C14.03 15.44 14.67 15.44 15.05 15.05C15.43 14.66 15.44 14.02 15.05 13.64L13.99 12.58ZM26.36 24.95C25.97 24.56 25.33 24.56 24.95 24.95C24.56 25.34 24.56 25.98 24.95 26.36L26.01 27.42C26.4 27.81 27.04 27.81 27.42 27.42C27.81 27.03 27.81 26.39 27.42 26.01L26.36 24.95ZM27.42 13.99C27.81 13.6 27.81 12.96 27.42 12.58C27.03 12.19 26.39 12.19 26.01 12.58L24.95 13.64C24.56 14.03 24.56 14.67 24.95 15.05C25.34 15.43 25.98 15.44 26.36 15.05L27.42 13.99ZM15.05 26.36C15.44 25.97 15.44 25.33 15.05 24.95C14.66 24.56 14.02 24.56 13.64 24.95L12.58 26.01C12.19 26.4 12.19 27.04 12.58 27.42C12.97 27.8 13.61 27.81 13.99 27.42L15.05 26.36Z" fill="#FAFAFA"/>
</svg>
